<svg xmlns="http://www.w3.org/2000/svg" viewBox="0 0 16 16" id="shazam"><g fill="#2196F3"><path d="M9.62 3.462c3.22-.029 5.594 2.812 5.365 5.795-.093 1.212-.538 2.302-1.384 3.184-1.033 1.076-2.101 2.123-3.163 3.177-.387.38-.861.481-1.363.28-.502-.201-.789-.595-.853-1.133a1.04 1.04 0 0 1 .301-.904l2.152-2.195c.351-.366.71-.724 1.026-1.112.724-.882.825-1.865.337-2.876-.516-1.061-1.391-1.578-2.582-1.542-.66.014-1.212.265-1.678.717-.452.438-.904.889-1.37 1.313-.452.409-1.04.452-1.535.143a1.329 1.329 0 0 1-.589-1.497c.036-.129.1-.265.186-.373.66-.789 1.356-1.542 2.216-2.116a4.968 4.968 0 0 1 2.934-.861z"></path><path d="M5.337 12.528C2.188 12.55-.214 9.702.015 6.726c.093-1.169.502-2.231 1.298-3.084C2.317 2.566 3.379 1.54 4.419.5c.115-.115.244-.208.38-.294.516-.316 1.047-.265 1.521.129.409.344.588.983.373 1.47-.079.187-.23.352-.373.502-.897.918-1.8 1.836-2.69 2.754-.359.366-.674.76-.832 1.269-.524 1.672.753 3.63 2.725 3.53.653-.036 1.212-.251 1.685-.703.452-.438.897-.882 1.37-1.313.452-.409 1.004-.466 1.492-.186.502.28.775.832.667 1.406a1.176 1.176 0 0 1-.23.509c-.66.782-1.363 1.535-2.216 2.116-.888.602-1.893.832-2.954.839z"></path></g></svg>