<svg width="62" height="62" viewBox="0 0 62 62" fill="none" xmlns="http://www.w3.org/2000/svg">
	<path d="M32.2298 0.0249265C15.1215 -0.655097 0.702114 12.662 0.0249216 29.7703C-0.655104 46.8785 12.6649 61.295 29.7704 61.9751C46.8787 62.6551 61.2953 49.338 61.9753 32.2297C62.6525 15.1214 49.3353 0.702117 32.2298 0.0249265ZM45.3146 45.4363C44.9293 46.1164 44.1784 46.4564 43.4474 46.3544C43.2236 46.3232 42.9997 46.2495 42.7901 46.1305C38.6929 43.7986 34.2274 42.2799 29.5182 41.6169C24.809 40.9538 20.097 41.1833 15.5153 42.2969C14.5208 42.5377 13.5206 41.9285 13.2798 40.934C13.0389 39.9395 13.6481 38.9393 14.6426 38.6984C19.6805 37.4744 24.86 37.2222 30.0339 37.9504C35.2078 38.6786 40.1153 40.3475 44.6233 42.9117C45.5102 43.4189 45.8218 44.5466 45.3175 45.4363H45.3146ZM49.3891 37.2987C48.7573 38.4661 47.2952 38.9024 46.1278 38.2706C41.3337 35.678 36.1428 33.9751 30.6998 33.2101C25.2567 32.445 19.7995 32.6519 14.4755 33.8221C14.1865 33.8844 13.9003 33.8958 13.6226 33.8561C12.6564 33.7201 11.829 33.0004 11.608 31.9889C11.3219 30.6912 12.1435 29.4076 13.4413 29.1214C19.3263 27.8266 25.3587 27.597 31.3713 28.4414C37.381 29.2858 43.1187 31.1672 48.4173 34.0346C49.5875 34.6665 50.021 36.1257 49.3891 37.2959V37.2987ZM53.9056 28.1269C53.3106 29.2716 52.0724 29.8638 50.8654 29.6938C50.5395 29.6485 50.2193 29.5464 49.9105 29.3878C44.3286 26.4835 38.316 24.5653 32.04 23.6841C25.7639 22.8029 19.4538 22.9899 13.2883 24.2423C11.6845 24.5681 10.1233 23.5311 9.79746 21.9302C9.47161 20.3265 10.5087 18.7652 12.1095 18.4394C18.9381 17.0538 25.9197 16.847 32.8645 17.8217C39.8093 18.7964 46.4622 20.9215 52.6448 24.1374C54.0955 24.8911 54.6593 26.679 53.9056 28.1297V28.1269Z" fill="white"></path>
</svg>