<?xml version="1.0" encoding="UTF-8"?>
<!--Generator: Apple Native CoreSVG 232.5-->
<!DOCTYPE svg
PUBLIC "-//W3C//DTD SVG 1.1//EN"
       "http://www.w3.org/Graphics/SVG/1.1/DTD/svg11.dtd">
<svg version="1.1" xmlns="http://www.w3.org/2000/svg" xmlns:xlink="http://www.w3.org/1999/xlink" width="20.9497" height="20.6177">
 <g>
  <rect height="20.6177" opacity="0" width="20.9497" x="0" y="0"/>
  <path d="M0.479743 20.1331C1.13404 20.7776 2.24244 20.7581 2.85279 20.1526L10.2942 12.7063L17.7307 20.1477C18.3606 20.7776 19.4544 20.7776 20.094 20.1282C20.7434 19.4739 20.7483 18.3899 20.1135 17.76L12.6819 10.3186L20.1135 2.88699C20.7483 2.25223 20.7483 1.16336 20.094 0.518827C19.4446-0.125704 18.3606-0.130587 17.7307 0.499296L10.2942 7.93582L2.85279 0.494413C2.24244-0.111056 1.12916-0.13547 0.479743 0.513944C-0.159905 1.16824-0.145257 2.27176 0.465095 2.87723L7.91138 10.3186L0.465095 17.7649C-0.145257 18.3753-0.169671 19.4886 0.479743 20.1331Z" fill="#ffffff" fill-opacity="0.85"/>
 </g>
</svg>
